<svg width="23" height="32" viewBox="0 0 23 32" fill="none" xmlns="http://www.w3.org/2000/svg">
<g clip-path="url(#clip0_3303_117)">
<path d="M3.02584 28.6186L2.76136 27.052C2.68592 26.6004 2.58949 25.8947 2.51601 25.4058H2.4873C2.41002 25.8984 2.30207 26.6241 2.22282 27.0558L1.93823 28.6186H3.02584ZM1.79615 29.6395L1.45242 31.3781H0.182617L1.76658 24.1447H3.32282L4.76167 31.3781H3.48523L3.14911 29.6395H1.79615Z" fill="#FAF5F5"/>
<path d="M7.65666 28.1468C7.65666 28.0504 7.65666 27.9376 7.63752 27.8345C7.58698 27.4773 7.39695 27.1557 7.09138 27.1557C6.56719 27.1557 6.37435 27.9109 6.37435 28.7941C6.37435 29.809 6.64927 30.3867 7.07322 30.3867C7.26705 30.3867 7.49044 30.2874 7.61175 29.8614C7.64133 29.7766 7.65666 29.663 7.65666 29.5302V28.1468ZM8.95993 23.9525V29.8778C8.95993 30.3475 8.98385 30.9252 9.00299 31.3768H7.87733L7.80384 30.7742H7.7771C7.58806 31.1457 7.17661 31.4617 6.68482 31.4617C5.60688 31.4617 5.07227 30.2721 5.07227 28.7702C5.07227 26.94 5.8694 26.0499 6.7383 26.0499C7.1928 26.0499 7.48685 26.2725 7.63491 26.5944H7.65687V23.9525H8.95993Z" fill="#FAF5F5"/>
<path d="M11.6725 30.4616C12.17 30.4616 12.2932 29.524 12.2932 28.7478C12.2932 28.0098 12.17 27.0482 11.6507 27.0482C11.1007 27.0482 10.9852 28.0098 10.9852 28.7478C10.9852 29.6386 11.1302 30.4616 11.661 30.4616H11.6725ZM11.6478 31.4612C10.4467 31.4612 9.69336 30.497 9.69336 28.7708C9.69336 26.8869 10.6605 26.0496 11.6784 26.0496C12.8632 26.0496 13.6061 27.0609 13.6061 28.7403C13.6061 30.8981 12.4422 31.4612 11.6584 31.4612H11.6478Z" fill="#FAF5F5"/>
<path d="M15.6397 29.5054C15.6397 29.6362 15.6636 29.7585 15.6914 29.8404C15.8221 30.2789 16.0436 30.3867 16.2212 30.3867C16.7254 30.3867 16.9288 29.7478 16.9288 28.7262C16.9288 27.7963 16.7139 27.1557 16.2155 27.1557C15.9682 27.1557 15.7601 27.4241 15.6884 27.7124C15.6635 27.803 15.6397 27.9443 15.6397 28.0417V29.5054ZM14.3364 23.9525H15.6396V26.6831H15.6606C15.9173 26.2801 16.2592 26.0499 16.7557 26.0499C17.7382 26.0499 18.2318 27.1671 18.2318 28.628C18.2318 30.4737 17.4957 31.4617 16.5418 31.4617C16.0873 31.4617 15.7846 31.2602 15.5116 30.7495H15.484L15.4115 31.3768H14.2925C14.3117 30.9424 14.3364 30.3475 14.3364 29.8778V23.9525Z" fill="#FAF5F5"/>
<path d="M21.3566 28.2577C21.3633 27.5216 21.1474 27.0058 20.734 27.0058C20.2623 27.0058 20.0618 27.6963 20.0475 28.2577H21.3566ZM20.0427 29.1792C20.0581 30.1272 20.5565 30.4357 21.1751 30.4357C21.5674 30.4357 21.9036 30.3486 22.1519 30.2552L22.3276 31.1928C21.9819 31.3417 21.4481 31.4353 20.9363 31.4353C19.5376 31.4353 18.7737 30.4794 18.7737 28.8468C18.7737 27.0949 19.6597 26.0425 20.8169 26.0425C21.935 26.0425 22.5547 26.9726 22.5547 28.4906C22.5547 28.8381 22.5403 29.0339 22.5173 29.1866L20.0427 29.1792Z" fill="#FAF5F5"/>
<path d="M22.5544 20.2774L14.2166 0.317871H22.5544V20.2774Z" fill="#FAF5F5"/>
<path d="M0.000488281 20.2774L8.34231 0.317871H0.000488281V20.2774Z" fill="#FAF5F5"/>
<path d="M13.1108 20.2767L11.5225 16.2622H7.63306L11.2802 7.67291L16.5916 20.2767H13.1108Z" fill="#FAF5F5"/>
</g>
<defs>
<clipPath id="clip0_3303_117">
<rect width="22.5534" height="31.7797" fill="white"/>
</clipPath>
</defs>
</svg>
